# xmcd CD database file
#
# Track frame offsets:
#	150
#	24055
#	47796
#	76434
#	101199
#	122298
#	153095
#	176567
#	208944
#
# Disc length: 3161 seconds
#
# Revision: 0
# Processed by: cddbd v1.5.2PL0 Copyright (c) Steve Scherf et al.
# Submitted via: CDex 1.70beta2
#
DISCID=680c5709
DTITLE=Shirley Scott - Six Classic Albums [CD4)
DYEAR=1900
DGENRE=Jazz
TTITLE0=Doodlin'
TTITLE1=The preacher
TTITLE2=Strollin'
TTITLE3=Baia
TTITLE4=Wee hour theme
TTITLE5=My shining hour
TTITLE6=Troubles of the world
TTITLE7=Dearly beloved
TTITLE8=Nothing ever changes ma love for you
EXTD=
EXTT0=
EXTT1=
EXTT2=
EXTT3=
EXTT4=
EXTT5=
EXTT6=
EXTT7=
EXTT8=
PLAYORDER=
